<?xml version="1.0"?>
<svg xmlns="http://www.w3.org/2000/svg" xmlns:xlink="http://www.w3.org/1999/xlink" xmlns:svgjs="http://svgjs.com/svgjs" version="1.1" width="24" height="24" x="0" y="0" viewBox="0 0 510 510" style="enable-background:new 0 0 512 512" xml:space="preserve" class=""><g><g xmlns="http://www.w3.org/2000/svg"><path d="m495.945 474.472-66.375-354c-2.658-14.18-15.059-24.472-29.486-24.472h-100.551v-18c0-16.542-13.458-30-30-30h-98v-18c0-16.542-13.458-30-30-30h-98c-16.542 0-30 13.458-30 30v450c0 16.542 13.458 30 30 30h226c16.542 0 30-13.458 30-30v-207.606l39.963 213.135c2.658 14.18 15.059 24.472 29.486 24.472h97.478c18.801-.001 32.943-17.086 29.485-35.529zm-354.412 5.528h-98v-450h98zm128 0h-98v-402h98c.019 410.917.1 402 0 402zm196.926 0h-97.477l-66.375-354h97.477c68 362.485 66.475 354 66.375 354z" fill="#5a5f7d" data-original="#000000" style="" class=""/><path d="m92.533 374c8.284 0 15-6.716 15-15v-216c0-8.284-6.716-15-15-15s-15 6.716-15 15v216c0 8.284 6.715 15 15 15z" fill="#5a5f7d" data-original="#000000" style="" class=""/><path d="m77.823 417.93c1.681 8.099 9.307 13.34 17.64 11.78 8.151-1.7 13.327-9.379 11.78-17.64-1.851-8.873-10.662-13.926-19.07-11.42-7.917 2.58-11.715 10.026-10.35 17.28z" fill="#5a5f7d" data-original="#000000" style="" class=""/><path d="m220.533 128c-8.284 0-15 6.716-15 15v216c0 8.284 6.716 15 15 15s15-6.716 15-15v-216c0-8.284-6.716-15-15-15z" fill="#5a5f7d" data-original="#000000" style="" class=""/><path d="m235.243 412.07c-1.834-8.795-10.583-13.949-19.07-11.42-8.613 2.807-12.201 11.289-9.99 18.71 2.831 8.686 11.446 12.2 18.7 9.99 7.802-2.488 11.738-9.915 10.36-17.28z" fill="#5a5f7d" data-original="#000000" style="" class=""/><path d="m361.726 168.265c-8.138 1.55-13.479 9.404-11.928 17.542l32 168c1.552 8.148 9.414 13.478 17.542 11.928 8.138-1.55 13.479-9.404 11.928-17.542l-32-168c-1.55-8.138-9.402-13.482-17.542-11.928z" fill="#5a5f7d" data-original="#000000" style="" class=""/><path d="m408.053 400.08c-8.093.667-14.285 8.162-13.44 16.4.654 7.936 8.039 14.307 16.4 13.45 8.423-.874 14.275-8.373 13.45-16.41-.878-8.453-8.379-14.26-16.41-13.44z" fill="#5a5f7d" data-original="#000000" style="" class=""/></g></g></svg>
