<?xml version="1.0"?>
<svg xmlns="http://www.w3.org/2000/svg" xmlns:xlink="http://www.w3.org/1999/xlink" xmlns:svgjs="http://svgjs.com/svgjs" version="1.1" width="24" height="24" x="0" y="0" viewBox="0 0 512 512" style="enable-background:new 0 0 512 512" xml:space="preserve" class=""><g>
<g xmlns="http://www.w3.org/2000/svg">
	<g>
		<path d="M256,0C114.842,0,0,114.842,0,256s114.842,256,256,256s256-114.842,256-256S397.158,0,256,0z M256,471.472    c-118.814,0-215.472-96.665-215.472-215.472S137.186,40.528,256,40.528c118.807,0,215.472,96.672,215.472,215.479    S374.807,471.472,256,471.472z" fill="#5a5f7d" data-original="#000000" style="" class=""/>
	</g>
</g>
<g xmlns="http://www.w3.org/2000/svg">
	<g>
		<path d="M256,301.425c-71.997,0-139.361,36.103-189.67,101.65l32.152,24.668c42.466-55.32,98.408-85.79,157.518-85.79    s115.051,30.47,157.511,85.79l32.152-24.668C395.354,337.528,327.997,301.425,256,301.425z" fill="#5a5f7d" data-original="#000000" style="" class=""/>
	</g>
</g>
<g xmlns="http://www.w3.org/2000/svg">
	<g>
		<path d="M256,91.863c-58.103,0-105.372,47.573-105.372,106.047S197.897,303.958,256,303.958s105.372-47.573,105.372-106.047    S314.103,91.863,256,91.863z M256,263.43c-35.752,0-64.844-29.389-64.844-65.52s29.092-65.52,64.844-65.52    s64.844,29.396,64.844,65.52S291.752,263.43,256,263.43z" fill="#5a5f7d" data-original="#000000" style="" class=""/>
	</g>
</g>
<g xmlns="http://www.w3.org/2000/svg">
</g>
<g xmlns="http://www.w3.org/2000/svg">
</g>
<g xmlns="http://www.w3.org/2000/svg">
</g>
<g xmlns="http://www.w3.org/2000/svg">
</g>
<g xmlns="http://www.w3.org/2000/svg">
</g>
<g xmlns="http://www.w3.org/2000/svg">
</g>
<g xmlns="http://www.w3.org/2000/svg">
</g>
<g xmlns="http://www.w3.org/2000/svg">
</g>
<g xmlns="http://www.w3.org/2000/svg">
</g>
<g xmlns="http://www.w3.org/2000/svg">
</g>
<g xmlns="http://www.w3.org/2000/svg">
</g>
<g xmlns="http://www.w3.org/2000/svg">
</g>
<g xmlns="http://www.w3.org/2000/svg">
</g>
<g xmlns="http://www.w3.org/2000/svg">
</g>
<g xmlns="http://www.w3.org/2000/svg">
</g>
</g></svg>
