<?xml version="1.0"?>
<svg xmlns="http://www.w3.org/2000/svg" xmlns:xlink="http://www.w3.org/1999/xlink" xmlns:svgjs="http://svgjs.com/svgjs" version="1.1" width="28" height="28" x="0" y="0" viewBox="0 0 512 512" style="enable-background:new 0 0 512 512" xml:space="preserve" class=""><g><g xmlns="http://www.w3.org/2000/svg" id="XMLID_2936_"><g id="XMLID_1_"><path id="XMLID_230_" d="m319.167 301h-35.167v-25.192c28.803-18.047 48-50.069 48-86.494v-179.314c0-5.522-4.477-10-10-10h-107.662c-47.607 0-86.338 38.731-86.338 86.339v42.447 60.527c0 36.426 19.197 68.447 48 86.494v25.193h-35.167c-77.655 0-140.833 63.178-140.833 140.833v60.167c0 5.522 4.477 10 10 10h175c5.523 0 10-4.478 10-10s-4.477-10-10-10h-97v-70c0-5.522-4.477-10-10-10s-10 4.478-10 10v70h-48v-50.167c0-66.628 54.206-120.833 120.833-120.833h35.175c.181 29.622 24.327 53.667 53.992 53.667s53.811-24.045 53.992-53.667h35.175c66.627 0 120.833 54.205 120.833 120.833v50.167h-48v-70c0-5.522-4.477-10-10-10s-10 4.478-10 10v70h-97c-5.523 0-10 4.478-10 10s4.477 10 10 10h175c5.523 0 10-4.478 10-10v-60.167c0-77.655-63.178-140.833-140.833-140.833zm-171.167-214.661c0-36.579 29.759-66.339 66.338-66.339h97.662v56.231c0 23.465-19.09 42.555-42.555 42.555h-121.445zm0 102.974v-50.527h121.445c16.424 0 31.382-6.372 42.555-16.762v67.289c0 45.215-36.785 82-82 82s-82-36.785-82-82zm82 165.354c-18.748 0-34-15.252-34-34v-35.188c10.64 3.773 22.083 5.834 34 5.834s23.36-2.061 34-5.834v35.188c0 18.748-15.252 34-34 34z" fill="#5a5f7d" data-original="#000000" style=""/><path id="XMLID_252_" d="m251.071 233.864c3.905-3.906 3.905-10.237 0-14.143-3.905-3.904-10.237-3.904-14.142 0-1.851 1.852-4.312 2.871-6.929 2.871s-5.078-1.02-6.929-2.871c-3.905-3.903-10.236-3.904-14.142 0-3.905 3.905-3.906 10.236 0 14.143 5.628 5.628 13.111 8.729 21.071 8.729s15.443-3.101 21.071-8.729z" fill="#5a5f7d" data-original="#000000" style=""/><path id="XMLID_253_" d="m230 492c-2.63 0-5.21 1.069-7.07 2.93-1.86 1.86-2.93 4.44-2.93 7.07s1.07 5.21 2.93 7.069c1.86 1.86 4.44 2.931 7.07 2.931s5.21-1.07 7.07-2.931c1.86-1.859 2.93-4.439 2.93-7.069s-1.07-5.21-2.93-7.07-4.44-2.93-7.07-2.93z" fill="#5a5f7d" data-original="#000000" style=""/><path id="XMLID_641_" d="m502 0h-60c-5.523 0-10 4.478-10 10v246c0 1.24.231 2.471.681 3.627l30 77.092c1.496 3.842 5.196 6.373 9.319 6.373s7.824-2.531 9.319-6.373l30-77.092c.45-1.156.681-2.387.681-3.627v-246c0-5.522-4.477-10-10-10zm-30 305.518-15.378-39.518h30.756zm20-59.518h-40v-226h40z" fill="#5a5f7d" data-original="#000000" style=""/></g></g></g></svg>
